<svg id="Layer_1" data-name="Layer 1" xmlns="http://www.w3.org/2000/svg" viewBox="0 0 132 132"><rect width="132" height="132" fill="#333"/><path d="M101.34,72.22l5.35-4.41,10.81-.54,7.87,7.84c0-9.32-6.25-15.09-18.69-11.49a24.7,24.7,0,0,1-3.26.37Z" transform="translate(0)" fill="#eff6f7"/><path d="M120.91,74.67c0,8.71-20.51,11-26.75,15.38-2.62,1.83-7.06,10-7.06,10L123.53,79S120.91,67.9,120.91,74.67Z" transform="translate(0)" fill="#eff6f7"/><path d="M101.34,75.38l3-.71a9.82,9.82,0,0,1,2.94-5.07c3.11-2.77,13.61-2.16,13.61,4.61,0,11.16-21.08,14.58-27.32,19C91,95,88,100.7,88,100.7s2.27.43,2.78,0c9.56-7.89,34.59-11.18,34.59-25.93,0-5.3-7.7-11.93-18.69-8a18.8,18.8,0,0,1-3.26.36Z" transform="translate(0)" fill="#d2d8d9"/><path d="M83.93,103.46H33.83s.66,5.18,7.35,9.38c2.47,1.54,8.36,3.77,17.7,3.77s15.24-2.23,17.71-3.77C83.28,108.64,83.93,103.46,83.93,103.46Z" transform="translate(0)" fill="#d2d8d9"/><path d="M104.9,56.92h-92s1.2,21.92,13.49,39.66c4.54,6.57,15.35,16,32.52,16s28-9.42,32.53-16C103.7,78.84,104.9,56.92,104.9,56.92Z" transform="translate(0)" fill="#eff6f7"/><ellipse cx="58.88" cy="57.02" rx="46.01" ry="19.16" fill="#eff6f7"/><path d="M58.88,45.69c21.18,0,38.85,6.05,43,14.09a7.85,7.85,0,0,0,.92-3.62c0-9.78-19.65-17.71-43.91-17.71S15,46.38,15,56.16a8,8,0,0,0,.91,3.62C20,51.74,37.71,45.69,58.88,45.69Z" transform="translate(0)" fill="#d2d8d9"/><path d="M58.88,73.88c21.18,0,38.85-6,43-14.1-4.14-8-21.81-14.09-43-14.09S20,51.74,15.89,59.78C20,67.83,37.71,73.88,58.88,73.88Z" transform="translate(0)" fill="#724e41"/><g opacity="0.6"><path d="M61.4,21.75c-6.92-7.18-2.32-17.64-2.32-17.64S44.55,17.93,53.73,27.47c10.62,11,5.35,17.89,5.35,17.89S72.25,33,61.4,21.75Z" transform="translate(0)" fill="#a6aeb0"/><path d="M40.67,28.19C35.48,23,38.93,15.36,38.93,15.36s-10.9,10.05-4,17c8,8,4,13,4,13S48.81,36.38,40.67,28.19Z" transform="translate(0)" fill="#a6aeb0"/><path d="M81.92,28.19C76.73,23,80.18,15.36,80.18,15.36s-10.9,10.05-4,17c8,8,4,13,4,13S90.06,36.38,81.92,28.19Z" transform="translate(0)" fill="#a6aeb0"/></g><path d="M88.28,59.73s.51-.4.53-.62a1.34,1.34,0,0,0-.52.22,1.23,1.23,0,0,0,0,.29s-.62-.54-.65-.59-.69-.43-.76-.48,0-.17-.71-.33a4.08,4.08,0,0,0-.76-.43s.09-.52-.11-.58l-.92-.3s-.09,0-.14.14-.63.16-.87-1c0,0,.14-.14-.52-.24a.92.92,0,0,0-.54-.49l-1.33-.38s0-.2-.42-.33a4.05,4.05,0,0,0-.84,0,2.64,2.64,0,0,1-.63-.39c0-.09,0-.33,0-.33l-.39-.16a3,3,0,0,0,0-.8A2.26,2.26,0,0,0,78,52.5l-.25-1.21a9.1,9.1,0,0,0-.9-.35l-.25-.21-.28,0-.34.07h-.54l-.17-.07a9.35,9.35,0,0,0-.1-1,.76.76,0,0,0-.45-.43c.06-.06-.06-.26-.06-.26l-.38-.18a1.22,1.22,0,0,1-.21-.22s.14-.25-.48-.54a1.33,1.33,0,0,0-.64.28,3.63,3.63,0,0,1-.39.5,2.36,2.36,0,0,0-.62.35c.25,0,.34,0,.22.21a1.1,1.1,0,0,0-.33.15,2.79,2.79,0,0,1-.32.58c-.11.09.08,1-.14,1.19s-.45.76-.67.88-.69.63-1.18.66-.79,0-.79,0l-1.27-.3a1.38,1.38,0,0,0-.54-.33c-.25-.05-.77-.1-.77-.1L65,51.94a6.63,6.63,0,0,0-.81-.3c-.29-.06-.85-.11-.85-.11s-2.11-.75-2.27-.83,0-.15,0-.15l.88-.33a2.8,2.8,0,0,0,.3-.3,1.65,1.65,0,0,0-.39-.05l-.09-.11.54-.21h.49l.28-.12s-.09-.05-.06-.1.43-.16.47-.2.32-.1-.15-.28-.35-.12-.35-.12a2.5,2.5,0,0,1-.75.3c-.25,0-.48-.28-.52-.35a4,4,0,0,1-1,.21,2,2,0,0,1-.82-.23l-1,0s-.1-.12-1-.11a13.46,13.46,0,0,0-1.45-.31,1.61,1.61,0,0,0-.76-.14,2.47,2.47,0,0,0-.49.08.6.6,0,0,0,.33.13,1.14,1.14,0,0,0,.69,0c.12,0,.14.11.14.11l0,.18-.46.2s-1.84.16-2-.06a6.32,6.32,0,0,0-1.84.64l.14.15-.14.13a2.17,2.17,0,0,1-.5.09c-.06,0-.16.23-.16.23a2.51,2.51,0,0,0-.52.26.52.52,0,0,0,0,.22s.49.11.47.2a1.3,1.3,0,0,1-.05.18,5.58,5.58,0,0,1-.93,0,1.7,1.7,0,0,0-.68-.09c-.35,0-.81.08-.95.29,0-.06,0-.31-.08-.4a10.28,10.28,0,0,0-1.44-.57A2.22,2.22,0,0,1,46.6,50a2.91,2.91,0,0,1-.48.21,2.54,2.54,0,0,0-.89.14c-.11.11,0,.14-.11.16a6.91,6.91,0,0,1-.75,0,1.4,1.4,0,0,1-.54.11.28.28,0,0,0,.15.31,2.31,2.31,0,0,1-.69.05c0,.06-.1.16.17.25-.17,0-1,0-1.07.27l.21.12v.16l.2.11a3.19,3.19,0,0,1-.85.06c-.55,0-.92,0-.53.28s.3.26.3.26l-.33,0s.06.17-.2.22a.48.48,0,0,1-.41-.12s-.41-.4-.6-.4a2.1,2.1,0,0,0-.58.14.87.87,0,0,0-.59.4c-.09.21,0,.31,0,.31l.27.12-.05.12s-1.07.53-1.17.61-.11.17-.22.22-.69.29-.8.31-.79.19-1,.21-1.92.19-2.14.23-.56.18-.74.2l-.71.08s.06.25-2.17.27c-.06,0-1.82.76-1.93.78s-.77.19-.86.22a2.73,2.73,0,0,0-.44.39c-.1,0-.26,0-.3-.11a.41.41,0,0,0-.26-.2,1.36,1.36,0,0,0-.43.29.57.57,0,0,0,.15.59c.1.09,0,.41,0,.41l-.16.17v.47l1.51,1s.14.18.07.23a.88.88,0,0,1-.55-.12,3.4,3.4,0,0,0-.48-.18l-.06.1s.52.3.42.35a.37.37,0,0,1-.24,0s-.88-.37-1-.39.15.2.42.35,1.3.59,1.3.59.41.3.37.43,1.34.84,1.49,1,.2.37.38.62a15.68,15.68,0,0,0,1.34,1,1.26,1.26,0,0,1,.25.37,2.94,2.94,0,0,1,0,.84c-.05.06-.14.2-.71.19-.18.07,0,.41.21.49a9.79,9.79,0,0,1,1.43.37,8.76,8.76,0,0,0,3.27-.06A3,3,0,0,1,37,65.19c.08,0,.05-.09.27-.17a5,5,0,0,1,2.22-.35A13.6,13.6,0,0,0,42,64.58a3.75,3.75,0,0,1,1.25,0s.12,0,.53-.44a3.16,3.16,0,0,1,.65-.31,8.33,8.33,0,0,0,.87-.11,11.44,11.44,0,0,1,1.4-.37c.28,0,1.24,0,1.68,0s2.38-.43,3-.48,1.56,0,1.88,0,1.17-.07,1.41-.06a4.86,4.86,0,0,0,.95.35,7.81,7.81,0,0,1,1.7.14,1.42,1.42,0,0,0,.33-.08,9.72,9.72,0,0,1,1,.39c.06.06,0,.31.19.37a1.28,1.28,0,0,1,.75.29c.16.09-.07,0,.46.25a.88.88,0,0,1,.42.47s-.16.22-.16.22a3.93,3.93,0,0,0,.5.09c.12,0,.44,0,.44,0l0-.16,1-.46.93-.16.3-.37a5.45,5.45,0,0,1,.52-.29c.07,0,.27.42.12.56s-.58.3-.58.49.11.34-.06.42-.57.09-.62.14-.1.11.11.13.9,0,1-.14,0-.46.34-.53a1.84,1.84,0,0,1,.68.52,3,3,0,0,1-.36.49,3.29,3.29,0,0,0,.93,0,.69.69,0,0,1,.49-.1c.22,0,.06.13.06.13h-.25a2.3,2.3,0,0,1,.7.55c.21.29.31.48.26.53a1.2,1.2,0,0,1-.27.08,3,3,0,0,0,.87.6,5.52,5.52,0,0,1,1.27.35,6.18,6.18,0,0,1,1.08,0c.21,0,1.73.37,1.73.37a3.18,3.18,0,0,0,.71,0c.14-.07,1-.26,1.08-.28s-.11-.08-.14-.1.53-.07.53-.07l.28.07-.21.17H73.5l.15.08H74l.31-.07v.15s.81.37.9.39.35.08.35.08a.71.71,0,0,1,.28-.2,3.55,3.55,0,0,1,.47,0,7.63,7.63,0,0,1,1.35-.43A17.13,17.13,0,0,1,80.34,68c.14,0,.57-.14.65-.32s.28-.82.71-1a8.72,8.72,0,0,0,.9-.48c.29-.18.16-.16.26-.32a9.12,9.12,0,0,1,1.69-1.15c.24-.07,1.17-.33,1.28-.4a9.91,9.91,0,0,0,.93-.76,7.93,7.93,0,0,1,1.39-1.62c.15-.07.06-.59,0-.69a2.9,2.9,0,0,1,0-1A2.69,2.69,0,0,0,88.28,59.73Z" transform="translate(0)" fill="#8f6a54"/><path d="M63.24,65.77c-.16,0-.58,0-.6,0s-.22.13-.22.16,0,0,.06.08a.89.89,0,0,1,.36,0,3.41,3.41,0,0,0,.59,0c.21,0,.77-.12.79-.13A2.16,2.16,0,0,0,63.24,65.77Z" transform="translate(0)" fill="#8f6a54"/><path d="M77.32,70.14c-.12,0-.53,0-.92.08a4.27,4.27,0,0,1-1.25,0A10.82,10.82,0,0,0,74,69.89a5.37,5.37,0,0,1-.76-.06s-.2.07-.21.13,0,.45.8,1c.19.13,0,.16-.07.19s0,.26.48.57a3,3,0,0,0,1.33.44c.2-.1.72-.3.72-.3l-.07-.13.28-.07.48.08a1.06,1.06,0,0,0,.28-.31,5.6,5.6,0,0,1,.65-.65c.07-.07.14-.44-.06-.57A.69.69,0,0,0,77.32,70.14Z" transform="translate(0)" fill="#8f6a54"/><path d="M63.29,50c-.32,0-.44.25-.4.34h.66S63.6,50,63.29,50Z" transform="translate(0)" fill="#8f6a54"/><path d="M52.62,48.47c.05,0-.22-.22-.41-.2a.63.63,0,0,0-.41.17.8.8,0,0,0,.2,0A3.19,3.19,0,0,0,52.62,48.47Z" transform="translate(0)" fill="#8f6a54"/><path d="M52.85,48.44a1.61,1.61,0,0,0,.65.08s.81-.18.81-.19v-.2l-.86,0a5.48,5.48,0,0,1-.82-.06S52.45,48.32,52.85,48.44Z" transform="translate(0)" fill="#8f6a54"/><path d="M83.72,59.07s.43-.35.45-.55a1.09,1.09,0,0,0-.44.19,1,1,0,0,0,0,.26s-.53-.47-.56-.51a7.35,7.35,0,0,0-.65-.42s0-.15-.6-.29a4.8,4.8,0,0,0-.65-.37s.07-.45-.11-.5l-.78-.26a.17.17,0,0,0-.12.12c-.08,0-.53.15-.74-.89,0,0,.12-.13-.45-.21a.78.78,0,0,0-.46-.42c-.34-.11-1-.3-1.14-.33s0-.18-.36-.28a3,3,0,0,0-.72,0,2.25,2.25,0,0,1-.54-.34c0-.08,0-.29,0-.29l-.34-.14a2.5,2.5,0,0,0,0-.69,2,2,0,0,0-.5-.39c0-.12-.22-1.06-.22-1.06s-.58-.25-.77-.3l-.22-.18-.23,0-.29.07-.46,0-.15-.07s0-.68-.09-.83a.65.65,0,0,0-.39-.37c.06-.06,0-.22,0-.22l-.32-.17a.71.71,0,0,1-.18-.19s.12-.22-.42-.46a1,1,0,0,0-.54.25,2.76,2.76,0,0,1-.33.43,2.2,2.2,0,0,0-.53.32c.22,0,.29,0,.19.17a1,1,0,0,0-.28.14,2.46,2.46,0,0,1-.26.51c-.1.08.07.89-.12,1s-.38.67-.57.78-.58.55-1,.58a6.66,6.66,0,0,1-.67,0L65.93,53a1.25,1.25,0,0,0-.47-.29l-.65-.08-1-.22a5.29,5.29,0,0,0-.69-.26,6.62,6.62,0,0,0-.73-.1s-1.8-.64-1.94-.71,0-.13,0-.13l.75-.29a2.32,2.32,0,0,0,.25-.27,1.08,1.08,0,0,0-.33,0l-.07-.1.45-.19H62l.24-.12s-.08,0-.06-.08.37-.14.41-.17.27-.09-.13-.25-.3-.1-.3-.1a2.29,2.29,0,0,1-.64.27c-.21,0-.41-.25-.45-.31a3.23,3.23,0,0,1-.81.19,1.65,1.65,0,0,1-.7-.2h-.86s-.08-.11-.88-.1a9.8,9.8,0,0,0-1.24-.26,1.32,1.32,0,0,0-.65-.12,2.06,2.06,0,0,0-.41.07.49.49,0,0,0,.27.12,1.07,1.07,0,0,0,.59,0c.1,0,.12.09.12.09l0,.16-.4.18s-1.57.15-1.68,0a5.3,5.3,0,0,0-1.56.57l.11.13-.11.12a1.64,1.64,0,0,1-.43.07.92.92,0,0,0-.13.21,2.13,2.13,0,0,0-.45.23.58.58,0,0,0,0,.19s.43.1.41.18a1.12,1.12,0,0,1-.05.15,4.86,4.86,0,0,1-.79,0,1.26,1.26,0,0,0-.58-.08c-.29,0-.69.08-.81.26,0-.05,0-.27-.07-.35a7.49,7.49,0,0,0-1.23-.48,1.87,1.87,0,0,1-.59-.11,2.09,2.09,0,0,1-.4.19,2.06,2.06,0,0,0-.76.13c-.09.1,0,.12-.1.14s-.63,0-.63,0a1.21,1.21,0,0,1-.46.1.23.23,0,0,0,.13.27,2,2,0,0,1-.59.05s-.08.14.15.21c-.15,0-.82,0-.91.25l.17.1v.14l.18.1a2.66,2.66,0,0,1-.73.05c-.47,0-.78,0-.44.25S44,53,44,53l-.28,0s.05.15-.17.19a.4.4,0,0,1-.35-.1s-.36-.34-.51-.34a1.72,1.72,0,0,0-.5.12.76.76,0,0,0-.5.35.3.3,0,0,0,0,.28l.23.1,0,.1s-.91.47-1,.54-.09.15-.19.2a7.22,7.22,0,0,1-.67.27c-.1,0-.68.17-.82.19s-1.64.18-1.83.22-.47.16-.63.18l-.6.07s.05.22-1.85.25c-.06,0-1.55.67-1.64.69s-.65.17-.73.2a3.15,3.15,0,0,0-.38.35c-.08,0-.22,0-.26-.1a.31.31,0,0,0-.22-.17,1.11,1.11,0,0,0-.36.25.52.52,0,0,0,.13.52c.08.08,0,.36,0,.36l-.14.15v.41l1.3.83s.12.16.05.2a.66.66,0,0,1-.46-.1,2.16,2.16,0,0,0-.41-.15l-.05.08s.44.27.36.31a.35.35,0,0,1-.21,0l-.82-.34c-.07,0,.13.18.36.31s1.11.51,1.11.51.36.26.32.37,1.15.72,1.28.84.17.32.33.54a14.19,14.19,0,0,0,1.14.88.85.85,0,0,1,.22.31,3.65,3.65,0,0,1,0,.74c0,.06-.12.17-.61.17-.15.07,0,.36.19.43a8.34,8.34,0,0,1,1.22.31,7,7,0,0,0,2.78-.07,2.5,2.5,0,0,1,1.25-.31c.08,0,0-.08.23-.16a4.49,4.49,0,0,1,1.9-.31,12.61,12.61,0,0,0,2.1-.09,3.15,3.15,0,0,1,1.07-.05s.1,0,.45-.39a2.64,2.64,0,0,1,.55-.27,6.25,6.25,0,0,0,.74-.11,10.33,10.33,0,0,1,1.19-.33c.24,0,1.06,0,1.43,0s2-.39,2.58-.45,1.34,0,1.6,0a10.41,10.41,0,0,1,1.21-.06,4.59,4.59,0,0,0,.81.3,6.83,6.83,0,0,1,1.45.11,1.39,1.39,0,0,0,.28-.07,8.27,8.27,0,0,1,.82.33c.05.05,0,.27.17.33a1.07,1.07,0,0,1,.63.24c.14.08-.05,0,.4.22a.77.77,0,0,1,.36.41,1,1,0,0,1-.13.19,3.16,3.16,0,0,0,.42.08c.1,0,.38,0,.38,0l0-.15.88-.4.79-.15.26-.33A4.05,4.05,0,0,1,63,62.7c.07,0,.23.36.1.48s-.48.27-.48.44.09.29,0,.36-.48.09-.53.13-.08.1.09.12.77,0,.88-.13,0-.4.29-.47a1.56,1.56,0,0,1,.58.45,2.66,2.66,0,0,1-.3.43,2.69,2.69,0,0,0,.79,0,.67.67,0,0,1,.42-.1c.18,0,.05.12.05.12h-.22a2,2,0,0,1,.61.47c.18.26.27.42.22.46a.9.9,0,0,1-.23.08,2.73,2.73,0,0,0,.74.52,4.33,4.33,0,0,1,1.09.29,5.36,5.36,0,0,1,.92,0c.18,0,1.48.31,1.48.31a2.35,2.35,0,0,0,.61,0c.11,0,.86-.23.92-.25s-.1-.07-.12-.08.45-.07.45-.07l.24.06-.19.15h-.23l.13.07h.31l.27-.06v.13s.69.32.76.34l.31.06s.13-.16.23-.18a2.69,2.69,0,0,1,.41,0,6.2,6.2,0,0,1,1.14-.38,14.49,14.49,0,0,1,2.29-.1c.12,0,.48-.12.55-.29s.23-.71.6-.89a6.86,6.86,0,0,0,.76-.43c.25-.15.14-.13.22-.27a8.26,8.26,0,0,1,1.44-1c.2-.06,1-.29,1.08-.35a7.35,7.35,0,0,0,.79-.67A7,7,0,0,1,83.62,61c.13-.06,0-.51,0-.6a3,3,0,0,1,0-.88A3.83,3.83,0,0,0,83.72,59.07Z" transform="translate(0)" fill="#b59267"/><path d="M62.41,64.51c-.14,0-.5,0-.52,0s-.18.11-.18.14,0,0,0,.07a.83.83,0,0,1,.3,0c.25,0,.34,0,.51,0s.65-.12.67-.13A1.79,1.79,0,0,0,62.41,64.51Z" transform="translate(0)" fill="#b59267"/><path d="M74.44,68.24c-.11,0-.45,0-.79.07a3.39,3.39,0,0,1-1.06,0c-.18,0-.75-.24-1-.27S71,68.05,71,68s-.17.07-.17.12,0,.39.68.85c.16.11,0,.14-.06.16s0,.23.42.5A2.48,2.48,0,0,0,73,70c.16-.09.6-.27.6-.27l0-.11.23-.06.41.06a.79.79,0,0,0,.24-.27,5.14,5.14,0,0,1,.55-.57.4.4,0,0,0-.06-.5A.55.55,0,0,0,74.44,68.24Z" transform="translate(0)" fill="#b59267"/><path d="M62.35,50.73c-.27,0-.37.22-.33.3h.56S62.61,50.68,62.35,50.73Z" transform="translate(0)" fill="#b59267"/><path d="M53.25,49.43s-.19-.19-.35-.17a.5.5,0,0,0-.35.15.79.79,0,0,0,.17,0A3.12,3.12,0,0,0,53.25,49.43Z" transform="translate(0)" fill="#b59267"/><path d="M53.44,49.4a1.48,1.48,0,0,0,.56.07s.69-.16.69-.17v-.18l-.74.05a4.37,4.37,0,0,1-.7-.05S53.1,49.3,53.44,49.4Z" transform="translate(0)" fill="#b59267"/><path d="M79.64,59.63s.37-.3.38-.47a.89.89,0,0,0-.37.16,1.12,1.12,0,0,0,0,.22s-.45-.4-.47-.44-.51-.31-.55-.35,0-.13-.51-.25a3.58,3.58,0,0,0-.55-.31s.06-.39-.09-.44l-.66-.22s-.07,0-.1.11-.45.12-.63-.77c0,0,.1-.11-.39-.18a.65.65,0,0,0-.38-.36l-1-.28s0-.15-.31-.24a3.05,3.05,0,0,0-.61,0s-.42-.21-.45-.29,0-.25,0-.25l-.29-.12a1.84,1.84,0,0,0,0-.59,1.43,1.43,0,0,0-.42-.33L72,53.35a6.47,6.47,0,0,0-.66-.26l-.18-.15-.2,0-.24.05-.39,0-.12-.06a6.63,6.63,0,0,0-.08-.71.55.55,0,0,0-.33-.32s0-.19,0-.19l-.27-.14a.76.76,0,0,1-.16-.16s.1-.19-.35-.4a.87.87,0,0,0-.45.21,2.22,2.22,0,0,1-.29.37,2.11,2.11,0,0,0-.45.28c.19,0,.25,0,.17.15a.79.79,0,0,0-.24.11c0,.06-.14.38-.22.44s.06.77-.1.89-.33.58-.48.67-.5.47-.85.5l-.56,0-.92-.22a1,1,0,0,0-.4-.25l-.55-.07-.82-.19a4.32,4.32,0,0,0-.58-.22,5.36,5.36,0,0,0-.62-.08S60.11,53.06,60,53s0-.12,0-.12l.63-.25a1.66,1.66,0,0,0,.22-.23,1.78,1.78,0,0,0-.28,0l-.06-.08.38-.17h.35l.21-.1s-.07,0,0-.07.31-.12.34-.15.23-.07-.11-.21-.25-.08-.25-.08a1.85,1.85,0,0,1-.54.22c-.18,0-.35-.21-.38-.26a2.43,2.43,0,0,1-.68.16,1.31,1.31,0,0,1-.59-.17h-.74s-.06-.09-.74-.08a8.65,8.65,0,0,0-1.05-.23,1.2,1.2,0,0,0-.55-.1,2.14,2.14,0,0,0-.35.06.4.4,0,0,0,.24.1.81.81,0,0,0,.49,0c.09,0,.1.08.1.08l0,.14-.33.15s-1.33.13-1.42,0a4.75,4.75,0,0,0-1.32.49l.1.12-.1.09a1.14,1.14,0,0,1-.36.07.61.61,0,0,0-.12.18,2.62,2.62,0,0,0-.37.19.46.46,0,0,0,0,.17S53,53,53,53a.64.64,0,0,1,0,.14,4.73,4.73,0,0,1-.67,0,1.06,1.06,0,0,0-.49-.07c-.24,0-.58.07-.68.22,0,0,0-.23-.06-.3a6.43,6.43,0,0,0-1-.41,1.64,1.64,0,0,1-.5-.09,2.11,2.11,0,0,1-.34.16,1.89,1.89,0,0,0-.65.11c-.07.08,0,.1-.07.12s-.54,0-.54,0a.89.89,0,0,1-.39.08.2.2,0,0,0,.11.23,1.42,1.42,0,0,1-.5,0s-.07.12.13.18c-.13,0-.69,0-.77.21l.14.09v.12l.14.08a2.25,2.25,0,0,1-.61.05c-.4,0-.66,0-.38.21s.22.2.22.2h-.24s.05.13-.14.17a.35.35,0,0,1-.3-.09s-.3-.29-.43-.29a1.49,1.49,0,0,0-.42.1.64.64,0,0,0-.42.31c-.07.16,0,.23,0,.23l.19.09,0,.08s-.77.41-.84.47-.08.13-.16.17a5.23,5.23,0,0,1-.57.23c-.08,0-.57.15-.69.16s-1.39.16-1.55.19-.4.14-.53.15l-.51.07s0,.18-1.56.21c0,0-1.31.58-1.39.6a5.61,5.61,0,0,0-.62.17,2.21,2.21,0,0,0-.32.29c-.07,0-.19,0-.22-.08a.27.27,0,0,0-.18-.15.84.84,0,0,0-.31.22.42.42,0,0,0,.11.44c.07.07,0,.31,0,.31l-.11.13V59l1.09.71s.1.14.05.17-.23,0-.4-.08a1.42,1.42,0,0,0-.34-.13l0,.07s.37.23.31.26a.26.26,0,0,1-.18,0l-.7-.29c-.06,0,.11.16.31.27s.94.43.94.43.3.22.27.32,1,.62,1.08.72.14.28.27.47.89.65,1,.75a.9.9,0,0,1,.18.27,2.65,2.65,0,0,1,0,.63c0,.05-.1.15-.52.15-.12.05,0,.3.16.36a7.26,7.26,0,0,1,1,.27,5.85,5.85,0,0,0,2.36-.06A2.23,2.23,0,0,1,42.73,64c.06,0,0-.06.19-.13a3.57,3.57,0,0,1,1.6-.27,9.43,9.43,0,0,0,1.78-.08,2.6,2.6,0,0,1,.9,0s.09,0,.38-.33a2.12,2.12,0,0,1,.47-.23,5.64,5.64,0,0,0,.62-.1,9.92,9.92,0,0,1,1-.28c.21,0,.9,0,1.21,0s1.72-.33,2.19-.38,1.12,0,1.35,0a9.38,9.38,0,0,1,1-.05,3.92,3.92,0,0,0,.68.26,5.44,5.44,0,0,1,1.23.09,1.16,1.16,0,0,0,.23-.06,5.51,5.51,0,0,1,.7.29s0,.23.14.27.28,0,.54.21,0,0,.33.19a.69.69,0,0,1,.31.35.83.83,0,0,1-.11.17,2.9,2.9,0,0,0,.36.06l.32,0,0-.12.75-.35.67-.13.21-.28a3,3,0,0,1,.38-.22c.05,0,.19.31.09.42s-.42.23-.42.37.08.25,0,.31-.42.08-.45.11-.07.09.07.1.66,0,.75-.11,0-.34.24-.4a1.26,1.26,0,0,1,.49.39,2.24,2.24,0,0,1-.26.36,2.23,2.23,0,0,0,.67,0,.54.54,0,0,1,.36-.07c.16,0,0,.1,0,.1h-.18a1.54,1.54,0,0,1,.51.41c.16.22.23.36.19.39a.59.59,0,0,1-.2.07,2.34,2.34,0,0,0,.63.44,3.68,3.68,0,0,1,.92.26,3.91,3.91,0,0,1,.78,0c.16,0,1.25.27,1.25.27a2,2,0,0,0,.51,0c.11-.05.74-.2.78-.21s-.08-.06-.1-.07a3.79,3.79,0,0,1,.38-.06l.2,0-.15.13H69l.1.06h.27l.22,0v.11s.58.27.64.28l.26.06a.52.52,0,0,1,.2-.15,1.87,1.87,0,0,1,.34,0,4.84,4.84,0,0,1,1-.33A11.57,11.57,0,0,1,74,65.86c.1,0,.41-.11.47-.25s.19-.61.5-.77a5.89,5.89,0,0,0,.65-.36c.21-.14.11-.12.18-.24A7.46,7.46,0,0,1,77,63.36c.17,0,.84-.25.92-.3a7.32,7.32,0,0,0,.67-.58,5.76,5.76,0,0,1,1-1.22c.11,0,0-.44,0-.51a2.56,2.56,0,0,1,0-.76A2.35,2.35,0,0,0,79.64,59.63Z" transform="translate(0)" fill="#f9f3d9"/><path d="M61.62,64.29c-.12,0-.42,0-.44,0s-.15.1-.15.12,0,0,0,.06,0,0,.25,0a3.88,3.88,0,0,0,.43,0l.57-.11A1.56,1.56,0,0,0,61.62,64.29Z" transform="translate(0)" fill="#f9f3d9"/><path d="M71.79,67.49c-.08,0-.38,0-.66.06a2.69,2.69,0,0,1-.9,0,8,8,0,0,0-.82-.23,2.56,2.56,0,0,1-.55,0s-.14.06-.14.1,0,.34.57.73c.14.09,0,.12-.05.14s0,.2.35.43a2.13,2.13,0,0,0,1,.32c.14-.08.51-.23.51-.23l0-.1.2,0,.35.06a.84.84,0,0,0,.2-.23,3.22,3.22,0,0,1,.47-.49c0-.06.1-.34,0-.44A.48.48,0,0,0,71.79,67.49Z" transform="translate(0)" fill="#f9f3d9"/><path d="M61.57,52.48c-.22,0-.31.2-.28.26h.48S61.8,52.44,61.57,52.48Z" transform="translate(0)" fill="#f9f3d9"/><path d="M53.88,51.37s-.17-.16-.3-.15a.41.41,0,0,0-.29.13.49.49,0,0,0,.14,0A2.25,2.25,0,0,0,53.88,51.37Z" transform="translate(0)" fill="#f9f3d9"/><path d="M54,51.34a1.13,1.13,0,0,0,.47.06s.58-.13.58-.14v-.15l-.62,0a4.82,4.82,0,0,1-.59,0S53.75,51.26,54,51.34Z" transform="translate(0)" fill="#f9f3d9"/></svg>